<mxfile host="app.diagrams.net" modified="2023-08-17T14:57:54.633Z" agent="Mozilla/5.0 (Windows NT 10.0; Win64; x64) AppleWebKit/537.36 (KHTML, like Gecko) Chrome/114.0.0.0 Safari/537.36" etag="mhnG_SFD5OVBxcqine8g" version="21.6.8" type="github">
  <diagram name="Vocab" id="Fe3QjJfHXWN7XtUSn2Vn">
    <mxGraphModel dx="1432" dy="836" grid="1" gridSize="10" guides="1" tooltips="1" connect="1" arrows="1" fold="1" page="1" pageScale="1" pageWidth="827" pageHeight="1169" math="0" shadow="0">
      <root>
        <mxCell id="0" />
        <mxCell id="1" parent="0" />
        <mxCell id="CXLgM0EVL0m1Kw1JCX3v-7" value="&lt;p style=&quot;margin:0px;margin-top:4px;text-align:center;&quot;&gt;&lt;br&gt;&lt;b&gt;__init__:输入单词，建立单词、个数元组类型；单词-个数map;单词-索引&lt;/b&gt;&lt;/p&gt;" style="verticalAlign=top;align=left;overflow=fill;fontSize=12;fontFamily=Helvetica;html=1;whiteSpace=wrap;" vertex="1" parent="1">
          <mxGeometry x="100" y="170" width="150" height="100" as="geometry" />
        </mxCell>
        <mxCell id="CXLgM0EVL0m1Kw1JCX3v-11" value="索引-单词" style="html=1;whiteSpace=wrap;strokeColor=default;fontFamily=Helvetica;fontSize=12;fontColor=default;fillColor=default;" vertex="1" parent="1">
          <mxGeometry x="120" y="340" width="110" height="50" as="geometry" />
        </mxCell>
        <mxCell id="CXLgM0EVL0m1Kw1JCX3v-12" value="__getitem__索引:&lt;br&gt;单词-个数[]" style="html=1;whiteSpace=wrap;strokeColor=default;fontFamily=Helvetica;fontSize=12;fontColor=default;fillColor=default;" vertex="1" parent="1">
          <mxGeometry x="120" y="460" width="110" height="50" as="geometry" />
        </mxCell>
        <mxCell id="CXLgM0EVL0m1Kw1JCX3v-13" value="to_tokens：得到指定下标的单词&lt;br&gt;索引=单词" style="html=1;whiteSpace=wrap;strokeColor=default;fontFamily=Helvetica;fontSize=12;fontColor=default;fillColor=default;" vertex="1" parent="1">
          <mxGeometry x="120" y="560" width="110" height="50" as="geometry" />
        </mxCell>
        <mxCell id="CXLgM0EVL0m1Kw1JCX3v-14" value="unk属性" style="html=1;whiteSpace=wrap;strokeColor=default;fontFamily=Helvetica;fontSize=12;fontColor=default;fillColor=default;" vertex="1" parent="1">
          <mxGeometry x="120" y="660" width="110" height="50" as="geometry" />
        </mxCell>
        <mxCell id="CXLgM0EVL0m1Kw1JCX3v-15" value="token_freqs返回单词-个数元组列表" style="html=1;whiteSpace=wrap;strokeColor=default;fontFamily=Helvetica;fontSize=12;fontColor=default;fillColor=default;" vertex="1" parent="1">
          <mxGeometry x="120" y="760" width="110" height="50" as="geometry" />
        </mxCell>
      </root>
    </mxGraphModel>
  </diagram>
</mxfile>
